<?xml version="1.0" standalone="no"?>
<!DOCTYPE svg PUBLIC "-//W3C//DTD SVG 20010904//EN"
 "http://www.w3.org/TR/2001/REC-SVG-20010904/DTD/svg10.dtd">
<svg version="1.0" xmlns="http://www.w3.org/2000/svg"
 width="712.000000pt" height="292.000000pt" viewBox="0 0 712.000000 292.000000"
 preserveAspectRatio="xMidYMid meet">
<metadata>
Created by potrace 1.14, written by Peter Selinger 2001-2017
</metadata>
<g transform="translate(0.000000,292.000000) scale(0.100000,-0.100000)"
fill="#000000" stroke="none">
<path d="M3603 2563 c-14 -16 -65 -111 -114 -212 -90 -187 -137 -259 -216
-338 -43 -42 -52 -72 -25 -81 7 -2 27 11 45 30 34 37 48 60 187 313 86 158
155 254 170 238 5 -4 20 -44 35 -88 34 -101 61 -129 117 -120 38 7 40 5 117
-72 59 -59 88 -98 119 -162 l42 -83 -26 -21 c-23 -18 -26 -25 -21 -62 l6 -41
-57 4 c-51 4 -62 1 -89 -22 -27 -23 -40 -26 -100 -26 -79 0 -87 -5 -123 -83
-29 -62 -73 -99 -114 -95 -27 3 -35 11 -63 67 -17 35 -43 77 -58 93 -25 26
-32 28 -105 28 -54 0 -81 4 -89 14 -19 23 -72 28 -92 10 -10 -9 -16 -21 -13
-26 21 -34 -214 -289 -586 -638 -276 -259 -330 -305 -433 -366 -70 -43 -86
-60 -87 -91 0 -40 73 -57 137 -32 106 40 373 87 373 66 0 -5 -14 -38 -31 -72
-24 -48 -29 -71 -24 -94 13 -60 60 -73 170 -46 119 29 465 57 465 37 0 -4 -9
-25 -20 -47 -36 -71 -19 -125 39 -125 15 0 50 7 77 15 77 23 119 20 144 -12
27 -35 96 -80 132 -88 35 -8 35 -18 2 -40 -14 -9 -24 -19 -21 -21 2 -3 62 6
133 20 71 13 162 27 202 30 87 7 139 27 150 57 5 12 4 42 -2 67 -10 43 -9 46
18 67 79 63 502 136 668 115 45 -5 85 -10 89 -10 3 0 23 -13 44 -30 65 -52
130 -37 142 33 7 43 -16 77 -50 77 -27 0 -157 134 -228 235 -61 86 -197 315
-274 460 -26 50 -91 165 -143 258 -52 92 -100 184 -108 205 -12 35 -11 38 12
55 36 28 30 56 -30 133 -30 38 -99 128 -153 199 -95 127 -99 130 -139 133 -38
3 -42 6 -62 50 -12 26 -27 66 -33 90 -12 42 -40 72 -67 72 -7 0 -24 -12 -39
-27z"/>
<path d="M2125 2066 c-22 -7 -91 -41 -153 -76 -104 -58 -113 -65 -107 -87 3
-14 2 -23 -2 -20 -4 3 -19 1 -32 -5 -21 -7 -23 -11 -10 -23 15 -14 98 -46 189
-73 54 -15 57 -15 130 10 75 26 76 26 232 15 154 -10 157 -10 210 13 41 18 75
24 153 26 145 4 193 12 258 41 40 18 57 31 55 42 -3 11 -12 15 -28 13 -14 -2
-57 -5 -96 -9 -63 -4 -102 -1 -264 27 -25 4 -46 4 -48 -1 -2 -4 -38 -16 -80
-25 -68 -15 -89 -15 -204 -4 l-127 13 -88 -33 c-98 -37 -156 -46 -193 -32
l-25 10 43 40 c48 44 137 95 196 111 33 9 48 6 114 -20 61 -25 87 -30 132 -27
30 3 91 -1 134 -9 44 -7 81 -11 83 -9 9 8 -131 35 -202 39 -60 3 -92 10 -130
29 -68 34 -93 38 -140 24z"/>
<path d="M4490 1999 c-102 -46 -251 -194 -230 -229 10 -17 75 -29 152 -30 37
0 102 -5 144 -11 59 -9 91 -9 143 1 62 12 71 11 155 -15 102 -31 154 -30 230
6 l47 22 116 -18 c111 -17 117 -17 129 0 17 23 4 47 -44 80 -55 38 -150 64
-292 80 -141 17 -230 40 -309 80 -63 31 -136 55 -171 55 -14 0 -45 -10 -70
-21z m222 -49 c98 -39 210 -65 405 -94 102 -15 168 -40 210 -79 12 -11 20 -24
17 -28 -11 -19 -57 -7 -140 37 l-87 46 -63 -12 c-73 -14 -105 -10 -189 25 -64
26 -129 31 -185 15 -74 -23 -238 -50 -298 -50 -57 0 -62 2 -53 18 23 43 96
113 143 136 74 37 121 34 240 -14z"/>
<path d="M462 1951 c-10 -6 -14 -49 -17 -172 -3 -185 -26 -338 -74 -489 -54
-173 -45 -160 -106 -160 -61 0 -86 -21 -77 -65 4 -21 10 -25 38 -25 18 0 35
-4 38 -8 3 -5 -11 -39 -29 -76 -19 -37 -35 -75 -35 -85 0 -24 31 -51 59 -51
23 0 32 18 71 130 10 28 28 73 36 88 2 3 210 41 269 49 39 5 41 4 73 -49 46
-75 66 -96 104 -112 37 -16 91 -14 112 3 10 8 12 21 7 39 -6 22 -13 27 -42 28
-46 1 -70 16 -103 63 -20 28 -26 46 -21 62 5 16 1 27 -18 43 -32 28 -52 98
-77 275 -11 79 -34 192 -51 250 -17 58 -32 113 -34 121 -8 38 -27 72 -61 109
-39 44 -42 45 -62 32z m91 -313 c14 -46 31 -123 37 -173 6 -49 20 -137 31
-193 11 -57 19 -105 17 -108 -7 -6 -140 -24 -185 -24 l-41 0 13 45 c16 51 66
268 71 305 9 64 23 187 23 208 1 12 3 22 5 22 2 0 15 -37 29 -82z"/>
<path d="M2288 1656 c-45 -55 -107 -125 -135 -156 -29 -30 -53 -58 -53 -62 0
-5 -6 -8 -13 -8 -7 0 -31 32 -53 70 -40 73 -82 108 -103 87 -25 -25 5 -115 63
-191 l37 -49 -71 -67 c-74 -70 -87 -102 -56 -143 13 -16 19 -17 55 -6 45 13
45 13 32 38 -8 13 1 28 39 70 l49 53 28 -21 c89 -70 115 -81 183 -81 75 0 130
21 130 49 0 21 -43 34 -79 24 -24 -6 -111 15 -111 27 0 4 -16 18 -35 31 -62
42 -60 49 56 184 116 134 180 218 176 229 -3 7 -17 15 -30 18 -22 4 -36 -9
-109 -96z"/>
<path d="M5068 1695 c-2 -3 -22 -7 -44 -11 -21 -3 -64 -14 -94 -25 -30 -10
-60 -19 -67 -19 -8 0 -47 -16 -87 -35 -41 -19 -78 -35 -83 -35 -14 0 -35 -45
-31 -65 8 -44 54 -38 140 19 l26 17 8 -98 c4 -55 2 -192 -5 -313 -12 -222 -7
-358 14 -387 8 -10 31 -18 66 -20 53 -4 54 -3 83 36 17 23 33 41 37 41 4 0 32
20 62 45 97 79 262 299 327 437 24 51 30 76 30 131 0 96 -23 138 -117 218 -40
34 -115 60 -188 64 -40 2 -75 2 -77 0z m207 -110 c107 -69 126 -139 75 -276
-42 -114 -251 -373 -354 -440 -68 -44 -72 -45 -84 -21 -9 16 -9 69 1 367 2 66
1 170 -3 230 -4 61 -5 115 -3 121 4 10 155 50 213 57 37 4 121 -17 155 -38z"/>
<path d="M5956 1683 c-3 -10 -6 -47 -7 -83 -1 -36 -7 -103 -15 -150 -7 -47
-18 -128 -24 -181 -7 -53 -15 -101 -19 -106 -6 -11 -209 -53 -254 -53 -25 0
-27 3 -27 41 0 23 5 58 10 78 18 63 37 351 25 375 -24 48 -80 20 -73 -37 4
-35 -12 -257 -22 -307 -5 -25 -15 -73 -22 -107 -9 -48 -16 -63 -29 -63 -32 0
-49 -12 -49 -35 0 -36 10 -55 31 -55 17 0 18 -9 17 -97 -1 -145 28 -201 98
-190 33 6 74 38 74 58 0 12 -35 29 -58 29 -11 0 -23 7 -26 16 -8 22 -7 167 2
179 11 16 146 53 260 72 31 5 32 4 32 -28 3 -249 19 -329 78 -386 49 -48 121
-15 85 38 -9 13 -22 27 -29 32 -23 14 -47 110 -48 187 0 177 0 177 40 190 21
7 60 10 89 7 38 -4 59 -1 74 9 21 15 29 58 13 68 -5 3 -50 2 -101 -2 -51 -4
-94 -5 -95 -2 -2 3 3 55 10 115 24 201 38 371 31 388 -9 23 -64 23 -71 0z"/>
<path d="M6518 1695 c-2 -3 -22 -7 -44 -11 -21 -3 -65 -14 -96 -25 -32 -10
-63 -19 -71 -19 -7 0 -44 -16 -83 -35 -38 -19 -73 -35 -78 -35 -14 0 -35 -33
-36 -56 0 -12 7 -28 16 -35 14 -11 26 -8 80 20 36 19 67 32 69 29 13 -12 16
-239 6 -409 -12 -204 -7 -347 14 -375 7 -10 32 -19 61 -21 48 -5 52 -3 83 33
18 20 59 56 90 79 51 37 69 56 136 136 69 83 154 211 198 299 25 50 33 80 35
136 5 96 -19 142 -115 225 -40 34 -115 60 -188 64 -40 2 -75 2 -77 0z m152
-87 c72 -22 143 -85 155 -137 11 -52 -20 -168 -63 -232 -20 -31 -54 -82 -75
-113 -49 -73 -171 -207 -222 -244 -111 -80 -116 -74 -109 111 9 232 10 346 3
457 -3 58 -5 110 -2 116 2 6 43 20 91 32 133 33 143 33 222 10z"/>
<path d="M1080 1643 c-140 -35 -151 -39 -195 -59 -40 -19 -64 -42 -77 -77 -6
-13 0 -26 17 -43 24 -24 25 -30 25 -152 0 -105 4 -135 20 -171 l20 -44 52 6
c58 7 93 33 82 61 -5 14 -14 16 -39 12 -29 -6 -33 -4 -40 21 -9 35 -8 241 1
289 7 40 30 55 119 77 103 26 165 28 220 9 56 -19 61 -38 22 -79 -22 -24 -289
-163 -313 -163 -17 0 -18 -14 -4 -41 15 -27 36 -24 116 15 38 18 101 48 139
67 94 45 185 135 185 182 0 43 -30 71 -102 96 -73 25 -132 24 -248 -6z"/>
<path d="M1651 1659 c-39 -5 -78 -17 -100 -32 -20 -13 -46 -27 -59 -31 -24 -8
-26 -15 -22 -93 1 -28 -4 -62 -11 -74 -7 -14 -14 -71 -15 -133 -5 -165 28
-225 129 -234 46 -4 60 0 114 32 78 46 144 145 127 190 -13 35 -63 9 -78 -41
-8 -24 -65 -72 -110 -91 -61 -27 -96 18 -97 124 -1 78 10 94 65 94 63 0 225
51 232 74 11 34 -9 39 -104 27 -48 -6 -107 -11 -130 -11 l-42 0 0 40 c0 36 4
42 33 54 67 30 140 47 220 52 127 8 147 12 147 33 0 14 -11 20 -52 25 -67 8
-165 6 -247 -5z"/>
</g>
</svg>
